<svg width="309" height="157" viewBox="0 0 309 157" fill="none" xmlns="http://www.w3.org/2000/svg">
<path d="M42.992 107.472C41.3707 107.472 39.8773 107.195 38.512 106.64C37.1893 106.128 36.1227 105.296 35.312 104.144C34.5013 102.992 34.096 101.541 34.096 99.792C34.096 98.9813 34.3947 98.3627 34.992 97.936C35.5467 97.552 36.2293 97.36 37.04 97.36C37.808 97.36 38.4693 97.552 39.024 97.936C39.6213 98.32 39.92 98.9173 39.92 99.728C39.92 100.667 40.2187 101.349 40.816 101.776C41.456 102.245 42.3093 102.48 43.376 102.48C45.1253 102.48 46.6827 101.712 48.048 100.176C49.456 98.64 50.6507 96.3787 51.632 93.392L71.472 31.952C71.0027 32.1653 70.4053 32.3573 69.68 32.528C68.9547 32.6987 68.1653 32.784 67.312 32.784C66.5867 32.784 65.8827 32.72 65.2 32.592C64.56 32.4213 63.92 32.2507 63.28 32.08C62.6827 31.8667 62.0853 31.696 61.488 31.568C60.9333 31.3973 60.3787 31.312 59.824 31.312C59.2267 31.312 58.6933 31.3973 58.224 31.568C57.7547 31.696 57.328 31.952 56.944 32.336C56.56 32.72 56.1333 33.296 55.664 34.064C55.3653 34.7893 54.9813 35.2587 54.512 35.472C54.0853 35.6853 53.4453 35.7067 52.592 35.536C51.6533 35.408 51.056 35.1307 50.8 34.704C50.5867 34.2347 50.5867 33.7013 50.8 33.104C51.3547 31.568 52.0587 30.2667 52.912 29.2C53.808 28.1333 54.8533 27.3227 56.048 26.768C57.2853 26.2133 58.6507 25.936 60.144 25.936C61.1253 25.936 62.0213 26.0213 62.832 26.192C63.6427 26.32 64.3893 26.512 65.072 26.768C65.7973 26.9813 66.48 27.1733 67.12 27.344C67.8027 27.472 68.464 27.536 69.104 27.536C70.2987 27.536 71.28 27.344 72.048 26.96C72.816 26.576 73.4773 26.1493 74.032 25.68C74.416 25.3813 74.7787 25.168 75.12 25.04C75.504 24.8693 75.9307 24.784 76.4 24.784C77.3813 24.784 78.1067 24.9333 78.576 25.232C79.0453 25.5307 79.1733 26.0213 78.96 26.704L57.584 92.688C56.56 95.888 55.3867 98.5973 54.064 100.816C52.784 103.035 51.248 104.699 49.456 105.808C47.664 106.917 45.5093 107.472 42.992 107.472ZM34.1075 99.792C34.1075 98.512 34.3848 97.2107 34.9395 95.888C35.4942 94.5653 36.3475 93.264 37.4995 91.984C38.6088 90.704 40.0382 89.4453 41.7875 88.208C43.4942 87.0133 45.5208 85.84 47.8675 84.688C50.1715 83.5787 52.7955 82.5333 55.7395 81.552C57.7022 80.8693 59.7288 80.1227 61.8195 79.312C63.8675 78.5013 65.8942 77.6053 67.8995 76.624C69.9048 75.6 71.7608 74.4907 73.4675 73.296C75.1742 72.1013 76.6248 70.8 77.8195 69.392C79.0568 67.984 79.9315 66.448 80.4435 64.784C80.6568 64.016 81.0622 63.6107 81.6595 63.568C82.2568 63.5253 82.7902 63.7387 83.2595 64.208C83.7288 64.6773 83.8355 65.2747 83.5795 66C82.8968 68.2613 81.8515 70.3093 80.4435 72.144C79.0355 73.936 77.3715 75.5573 75.4515 77.008C73.5315 78.4587 71.4835 79.76 69.3075 80.912C67.1315 82.0213 64.9342 83.024 62.7155 83.92C60.4968 84.816 58.4062 85.6267 56.4435 86.352C53.5848 87.2907 51.1315 88.2933 49.0835 89.36C47.0355 90.4693 45.3288 91.6 43.9635 92.752C42.5982 93.9467 41.5955 95.12 40.9555 96.272C40.2728 97.4667 39.9315 98.6187 39.9315 99.728C39.9315 100.539 39.6542 101.136 39.0995 101.52C38.5022 101.947 37.8195 102.16 37.0515 102.16C36.2408 102.16 35.5582 101.968 35.0035 101.584C34.4062 101.2 34.1075 100.603 34.1075 99.792ZM84.4755 83.088C82.6408 83.088 81.0622 82.6827 79.7395 81.872C78.4168 81.0187 77.3928 79.8027 76.6675 78.224C75.9848 76.6453 75.6435 74.7893 75.6435 72.656C75.6435 70.7787 75.8995 68.752 76.4115 66.576C76.9662 64.4 77.7768 62.2667 78.8435 60.176C79.9528 58.0853 81.3182 56.1867 82.9395 54.48C84.6035 52.7307 86.5448 51.344 88.7635 50.32C90.9822 49.296 93.4995 48.784 96.3155 48.784C98.1502 48.784 99.9422 49.1467 101.692 49.872C103.441 50.5547 105.02 51.4293 106.428 52.496L105.596 56.912C103.761 55.7173 102.118 54.9067 100.668 54.48C99.2595 54.0533 97.8515 53.84 96.4435 53.84C94.2675 53.84 92.3475 54.2453 90.6835 55.056C89.0622 55.8667 87.6542 56.9547 86.4595 58.32C85.3075 59.6853 84.3475 61.1787 83.5795 62.8C82.8542 64.4213 82.2995 66.0427 81.9155 67.664C81.5742 69.2427 81.4035 70.672 81.4035 71.952C81.4035 73.2747 81.5955 74.384 81.9795 75.28C82.3635 76.1333 82.9182 76.7947 83.6435 77.264C84.3688 77.7333 85.2648 77.968 86.3315 77.968C87.8248 77.968 89.3608 77.4347 90.9395 76.368C92.5182 75.3013 94.0968 73.7653 95.6755 71.76C97.2968 69.712 98.8328 67.3013 100.284 64.528L101.692 67.344C99.8142 71.3973 97.8302 74.576 95.7395 76.88C93.6488 79.184 91.6222 80.8053 89.6595 81.744C87.7395 82.64 86.0115 83.088 84.4755 83.088ZM103.612 83.088C101.99 83.088 100.668 82.8107 99.6435 82.256C98.6195 81.7013 97.8515 80.9333 97.3395 79.952C96.8702 78.928 96.6355 77.776 96.6355 76.496C96.6782 75.1733 96.9342 73.7653 97.4035 72.272L104.38 51.088C104.678 50.2347 105.02 49.68 105.404 49.424C105.83 49.168 106.449 49.04 107.26 49.04C108.582 49.04 109.414 49.2533 109.756 49.68C110.14 50.064 110.182 50.6827 109.884 51.536L102.908 72.848C102.225 74.896 102.076 76.3253 102.46 77.136C102.844 77.904 103.718 78.288 105.083 78.288C105.681 78.288 106.086 78.544 106.3 79.056C106.556 79.5253 106.641 80.08 106.556 80.72C106.47 81.3173 106.172 81.8507 105.66 82.32C105.19 82.832 104.508 83.088 103.612 83.088ZM103.724 83.088C103.255 83.088 102.956 82.832 102.828 82.32C102.7 81.8507 102.722 81.3173 102.892 80.72C103.063 80.08 103.362 79.5253 103.788 79.056C104.172 78.544 104.62 78.288 105.132 78.288C105.815 78.288 106.583 78.096 107.436 77.712C108.247 77.328 109.122 76.688 110.06 75.792C110.956 74.896 111.916 73.68 112.941 72.144C113.965 70.608 115.01 68.6453 116.077 66.256C117.741 62.544 119.277 59.5573 120.685 57.296C122.093 55.0347 123.415 53.3067 124.653 52.112C125.89 50.8747 127.063 50.0427 128.173 49.616C129.325 49.1893 130.455 48.976 131.565 48.976C132.034 48.976 132.333 49.232 132.461 49.744C132.589 50.2133 132.61 50.768 132.525 51.408C132.439 52.0053 132.247 52.56 131.949 53.072C131.693 53.5413 131.351 53.776 130.925 53.776C130.242 53.776 129.538 54.0107 128.812 54.48C128.13 54.9067 127.383 55.6107 126.573 56.592C125.762 57.5733 124.887 58.896 123.949 60.56C123.01 62.1813 121.965 64.1867 120.812 66.576C119.149 70.0747 117.591 72.912 116.141 75.088C114.733 77.264 113.367 78.9493 112.044 80.144C110.679 81.296 109.335 82.064 108.012 82.448C106.647 82.8747 105.218 83.088 103.724 83.088ZM130.541 83.216C128.194 83.216 126.317 82.768 124.909 81.872C123.501 80.976 122.498 79.76 121.901 78.224C121.346 76.688 121.133 74.9813 121.26 73.104C121.389 71.184 121.773 69.2213 122.413 67.216L125.869 56.528C126.167 55.632 126.21 54.9493 125.997 54.48C125.826 54.0107 125.357 53.776 124.589 53.776C123.949 53.776 123.458 53.5413 123.117 53.072C122.818 52.56 122.69 52.0053 122.733 51.408C122.818 50.768 123.053 50.2133 123.437 49.744C123.863 49.232 124.461 48.976 125.229 48.976C126.679 48.976 127.853 49.232 128.749 49.744C129.687 50.2133 130.37 50.896 130.797 51.792C131.223 52.688 131.415 53.712 131.373 54.864C131.373 56.016 131.181 57.2747 130.797 58.64L128.365 66.064C127.981 67.344 127.618 68.688 127.277 70.096C126.978 71.504 126.829 72.8053 126.829 74C126.871 75.1947 127.234 76.176 127.917 76.944C128.642 77.712 129.794 78.096 131.373 78.096C132.482 78.096 133.549 77.8613 134.573 77.392C135.639 76.88 136.642 76.1973 137.581 75.344C138.519 74.4907 139.394 73.5093 140.205 72.4C141.015 71.248 141.719 70.032 142.317 68.752C142.914 67.472 143.426 66.1707 143.853 64.848C144.151 63.7813 144.429 62.5867 144.685 61.264C144.941 59.9413 145.047 58.4693 145.005 56.848C144.023 56.1227 143.277 55.3547 142.765 54.544C142.253 53.7333 141.997 52.8373 141.997 51.856C141.997 50.9173 142.274 50.1707 142.829 49.616C143.383 49.0187 144.087 48.72 144.941 48.72C145.709 48.72 146.391 48.912 146.989 49.296C147.586 49.68 148.119 50.256 148.589 51.024C149.058 51.792 149.421 52.7947 149.677 54.032C149.933 55.2267 150.061 56.656 150.061 58.32C150.061 60.24 149.762 62.3307 149.165 64.592C148.61 66.8107 147.799 69.0293 146.733 71.248C145.666 73.424 144.343 75.4293 142.765 77.264C141.186 79.056 139.373 80.5067 137.325 81.616C135.277 82.6827 133.015 83.216 130.541 83.216ZM154.259 57.296C152.723 57.296 151.379 57.1253 150.227 56.784C149.032 56.4427 147.902 55.9093 146.835 55.184C146.28 54.8427 145.982 54.416 145.939 53.904C145.854 53.392 145.939 52.9013 146.195 52.432C146.451 51.9627 146.792 51.6213 147.219 51.408C147.603 51.1947 147.966 51.216 148.307 51.472C149.032 51.9413 149.95 52.3253 151.059 52.624C152.168 52.88 153.448 53.008 154.899 53.008C156.478 53.008 158.078 52.8587 159.699 52.56C161.363 52.2613 162.899 51.856 164.307 51.344C165.715 50.832 166.803 50.256 167.571 49.616C168.04 49.232 168.51 49.2107 168.979 49.552C169.491 49.8507 169.79 50.2987 169.875 50.896C170.003 51.4933 169.747 52.048 169.107 52.56C167.23 54.096 164.947 55.2693 162.259 56.08C159.614 56.8907 156.947 57.296 154.259 57.296ZM165.523 83.088C163.944 83.088 162.622 82.8107 161.555 82.256C160.531 81.7013 159.763 80.9333 159.251 79.952C158.782 78.928 158.547 77.776 158.547 76.496C158.547 75.216 158.803 73.808 159.315 72.272L166.227 51.088C166.526 50.2347 166.867 49.68 167.251 49.424C167.678 49.168 168.296 49.04 169.107 49.04C170.43 49.04 171.262 49.2533 171.603 49.68C171.987 50.064 172.03 50.6827 171.731 51.536L164.819 72.848C164.094 74.896 163.923 76.3253 164.307 77.136C164.691 77.904 165.587 78.288 166.995 78.288C167.592 78.288 168.019 78.544 168.275 79.056C168.531 79.5253 168.595 80.08 168.467 80.72C168.382 81.3173 168.083 81.8507 167.571 82.32C167.102 82.832 166.419 83.088 165.523 83.088ZM173.075 39.184C172.222 39.184 171.496 38.9067 170.899 38.352C170.302 37.7973 170.003 36.9867 170.003 35.92C170.003 34.768 170.366 33.68 171.091 32.656C171.859 31.632 173.032 31.12 174.611 31.12C175.507 31.12 176.254 31.3973 176.851 31.952C177.448 32.464 177.747 33.2747 177.747 34.384C177.747 35.536 177.363 36.624 176.595 37.648C175.87 38.672 174.696 39.184 173.075 39.184ZM165.471 83.088C164.874 83.088 164.447 82.832 164.191 82.32C163.893 81.8507 163.807 81.3173 163.935 80.72C164.021 80.08 164.319 79.5253 164.831 79.056C165.343 78.544 166.047 78.288 166.943 78.288C167.797 78.288 168.885 78.0533 170.207 77.584C171.487 77.1147 172.981 76.432 174.688 75.536C176.437 74.64 178.357 73.5093 180.448 72.144C181.002 71.8027 181.493 71.7387 181.92 71.952C182.346 72.1653 182.688 72.528 182.944 73.04C183.2 73.552 183.264 74.1067 183.135 74.704C183.05 75.3013 182.752 75.7707 182.24 76.112C179.68 77.776 177.397 79.12 175.392 80.144C173.386 81.168 171.573 81.9147 169.951 82.384C168.33 82.8533 166.837 83.088 165.471 83.088ZM182.688 71.312C185.077 69.9893 187.232 68.6667 189.152 67.344C191.114 66.0213 192.8 64.72 194.208 63.44C195.616 62.16 196.704 60.944 197.472 59.792C198.24 58.5973 198.624 57.488 198.624 56.464C198.624 55.568 198.389 54.928 197.92 54.544C197.45 54.1173 196.81 53.904 196 53.904C194.122 53.904 192.458 54.4373 191.008 55.504C189.6 56.528 188.384 57.8507 187.36 59.472C186.378 61.0507 185.632 62.6933 185.12 64.4C184.65 66.064 184.416 67.5147 184.416 68.752C184.416 70.5013 184.65 71.9947 185.12 73.232C185.589 74.4267 186.229 75.3867 187.04 76.112C187.893 76.8373 188.832 77.3707 189.856 77.712C190.922 78.0533 192.01 78.224 193.12 78.224C193.717 78.224 194.122 78.48 194.336 78.992C194.592 79.4613 194.677 80.0373 194.592 80.72C194.549 81.36 194.336 81.9147 193.952 82.384C193.568 82.896 193.056 83.152 192.416 83.152C189.472 83.152 186.976 82.6187 184.928 81.552C182.88 80.4853 181.322 78.8853 180.256 76.752C179.189 74.6187 178.656 72.016 178.656 68.944C178.656 66.9387 179.04 64.784 179.808 62.48C180.618 60.176 181.792 57.9787 183.328 55.888C184.864 53.7973 186.762 52.0907 189.024 50.768C191.328 49.4453 193.952 48.784 196.896 48.784C198.261 48.784 199.498 49.04 200.608 49.552C201.76 50.064 202.656 50.8107 203.296 51.792C203.978 52.7733 204.32 53.9893 204.32 55.44C204.32 57.2747 203.829 59.0453 202.848 60.752C201.909 62.4587 200.544 64.144 198.752 65.808C197.002 67.4293 194.912 69.0507 192.48 70.672C190.048 72.2933 187.36 73.936 184.416 75.6L182.688 71.312ZM192.435 83.152C191.624 83.152 191.07 82.896 190.771 82.384C190.43 81.9147 190.302 81.36 190.387 80.72C190.472 80.0373 190.75 79.4613 191.219 78.992C191.688 78.48 192.328 78.224 193.139 78.224C195.528 78.224 197.619 77.7973 199.411 76.944C201.16 76.0907 202.739 74.9173 204.147 73.424C205.512 71.9307 206.75 70.224 207.859 68.304C208.968 66.384 210.056 64.3573 211.123 62.224C211.934 60.5173 212.787 58.8747 213.683 57.296C214.579 55.7173 215.56 54.3093 216.627 53.072C217.694 51.792 218.867 50.7893 220.147 50.064C221.47 49.3387 222.963 48.976 224.627 48.976C225.096 48.976 225.395 49.232 225.523 49.744C225.651 50.2133 225.672 50.768 225.587 51.408C225.502 52.0053 225.31 52.56 225.011 53.072C224.755 53.5413 224.414 53.776 223.987 53.776C223.262 53.776 222.536 53.9893 221.811 54.416C221.086 54.8427 220.382 55.504 219.699 56.4C219.016 57.2533 218.291 58.2987 217.523 59.536C216.798 60.7733 216.03 62.224 215.219 63.888C214.238 65.8933 213.214 67.8347 212.147 69.712C211.08 71.5893 209.928 73.36 208.691 75.024C207.454 76.6453 206.046 78.0747 204.467 79.312C202.888 80.5067 201.118 81.4453 199.155 82.128C197.192 82.8107 194.952 83.152 192.435 83.152ZM213.554 82.96C212.871 82.96 212.231 82.8107 211.634 82.512C211.079 82.2133 210.93 81.6587 211.186 80.848L218.994 56.528C219.292 55.632 219.335 54.9493 219.122 54.48C218.908 54.0107 218.439 53.776 217.714 53.776C217.074 53.776 216.626 53.5413 216.37 53.072C216.114 52.56 216.007 52.0053 216.05 51.408C216.135 50.768 216.37 50.2133 216.754 49.744C217.138 49.232 217.671 48.976 218.354 48.976C219.548 48.976 220.551 49.168 221.362 49.552C222.172 49.8933 222.812 50.384 223.282 51.024C223.751 51.664 224.071 52.3893 224.242 53.2C224.412 54.0107 224.455 54.8427 224.37 55.696L224.05 56.784C224.946 55.4613 225.863 54.3093 226.802 53.328C227.783 52.3467 228.743 51.5147 229.682 50.832C230.663 50.1493 231.623 49.6373 232.562 49.296C233.543 48.9547 234.482 48.784 235.378 48.784C236.188 48.784 236.722 49.04 236.978 49.552C237.276 50.064 237.34 50.6613 237.17 51.344C236.999 52.0267 236.636 52.624 236.082 53.136C235.57 53.648 234.866 53.904 233.97 53.904C233.074 53.904 232.05 54.2667 230.898 54.992C229.746 55.6747 228.551 56.6773 227.314 58C226.076 59.3227 224.882 60.9013 223.73 62.736C222.578 64.5707 221.532 66.5973 220.594 68.816L216.626 81.296C216.455 81.8507 216.135 82.256 215.666 82.512C215.239 82.8107 214.535 82.96 213.554 82.96ZM240.458 61.2C239.093 61.2 237.898 60.9013 236.874 60.304C235.893 59.7067 235.125 58.8107 234.57 57.616C234.058 56.3787 233.802 54.9493 233.802 53.328L235.466 48.784C236.533 48.784 237.301 48.976 237.77 49.36C238.239 49.7013 238.474 50.4693 238.474 51.664C238.474 52.944 238.581 53.9893 238.794 54.8C239.05 55.568 239.413 56.1227 239.882 56.464C240.394 56.7627 241.055 56.912 241.866 56.912C242.762 56.912 243.679 56.8053 244.618 56.592C245.599 56.336 246.559 55.9733 247.498 55.504C248.479 54.992 249.397 54.3307 250.25 53.52C250.591 53.1787 250.89 53.1573 251.146 53.456C251.445 53.712 251.637 54.0747 251.722 54.544C251.85 55.0133 251.786 55.3547 251.53 55.568C250.207 56.976 248.949 58.1067 247.754 58.96C246.602 59.7707 245.429 60.3467 244.234 60.688C243.082 61.0293 241.823 61.2 240.458 61.2ZM246.602 83.088C244.767 83.088 243.189 82.6827 241.866 81.872C240.543 81.0187 239.519 79.8027 238.794 78.224C238.111 76.6453 237.77 74.7893 237.77 72.656C237.77 70.7787 238.026 68.752 238.538 66.576C239.093 64.4 239.903 62.2667 240.97 60.176C242.079 58.0853 243.445 56.1867 245.066 54.48C246.73 52.7307 248.671 51.344 250.89 50.32C253.109 49.296 255.626 48.784 258.442 48.784C259.85 48.784 261.237 48.9973 262.602 49.424C263.967 49.8507 265.247 50.4267 266.442 51.152L266.506 50.896C266.805 50.128 267.146 49.6373 267.53 49.424C267.957 49.168 268.554 49.04 269.322 49.04C270.687 49.04 271.541 49.2533 271.882 49.68C272.223 50.064 272.266 50.6827 272.01 51.536L264.394 74.64C264.223 75.1947 264.095 75.7493 264.01 76.304C263.925 76.8587 263.989 77.328 264.202 77.712C264.415 78.0533 264.842 78.224 265.482 78.224C266.037 78.224 266.57 78.0747 267.082 77.776C267.594 77.4773 268.063 77.0933 268.49 76.624C268.959 76.112 269.365 75.6213 269.706 75.152C269.962 74.768 270.303 74.512 270.73 74.384C271.199 74.256 271.754 74.4053 272.394 74.832C273.077 75.2587 273.439 75.7067 273.482 76.176C273.525 76.6027 273.418 77.0507 273.162 77.52C272.778 78.2453 272.181 79.056 271.37 79.952C270.602 80.8053 269.663 81.5307 268.554 82.128C267.445 82.7253 266.186 83.024 264.778 83.024C263.455 83.024 262.389 82.832 261.578 82.448C260.767 82.064 260.149 81.552 259.722 80.912C259.338 80.272 259.082 79.5467 258.954 78.736C258.826 77.9253 258.805 77.0933 258.89 76.24C258.89 76.112 258.89 76.0053 258.89 75.92C258.89 75.792 258.911 75.6853 258.954 75.6C257.461 77.4773 255.967 78.9707 254.474 80.08C252.981 81.1893 251.551 81.9573 250.186 82.384C248.863 82.8533 247.669 83.088 246.602 83.088ZM243.53 71.952C243.53 73.2747 243.701 74.384 244.042 75.28C244.426 76.1333 244.981 76.7947 245.706 77.264C246.474 77.7333 247.37 77.968 248.394 77.968C249.845 77.968 251.317 77.4987 252.81 76.56C254.303 75.5787 255.797 74.1707 257.29 72.336C258.783 70.5013 260.234 68.3253 261.642 65.808L265.034 55.44C263.882 54.8 262.773 54.3733 261.706 54.16C260.639 53.9467 259.573 53.84 258.506 53.84C256.373 53.84 254.474 54.2453 252.81 55.056C251.146 55.8667 249.717 56.9547 248.522 58.32C247.37 59.6853 246.41 61.1787 245.642 62.8C244.917 64.4213 244.383 66.0427 244.042 67.664C243.701 69.2427 243.53 70.672 243.53 71.952Z" fill="rgb(111, 54, 190)"/>
<path d="M27.2 134.088C24.256 134.088 21.5893 133.64 19.2 132.744C16.8533 131.805 14.8267 130.461 13.12 128.712C11.456 126.92 10.176 124.744 9.28 122.184C8.42667 119.581 8 116.616 8 113.288C8 110.771 8.29867 108.125 8.896 105.352C9.49333 102.536 10.3893 99.72 11.584 96.904C12.8213 94.088 14.3573 91.4213 16.192 88.904C18.0267 86.3867 20.16 84.1467 22.592 82.184C25.024 80.1787 27.776 78.6213 30.848 77.512C33.92 76.36 37.2907 75.784 40.96 75.784C43.4347 75.784 45.696 76.04 47.744 76.552C49.792 77.064 51.6053 77.832 53.184 78.856C54.7627 79.8373 56.064 81.0747 57.088 82.568C57.4293 83.0373 57.4933 83.464 57.28 83.848C57.1093 84.1893 56.7253 84.616 56.128 85.128C55.5733 85.5547 55.0827 85.7893 54.656 85.832C54.2293 85.8747 53.7173 85.64 53.12 85.128C51.7973 83.8907 50.048 82.9307 47.872 82.248C45.7387 81.5653 43.1147 81.224 40 81.224C37.3973 81.224 34.944 81.6933 32.64 82.632C30.336 83.528 28.224 84.7867 26.304 86.408C24.384 87.9867 22.656 89.8213 21.12 91.912C19.584 93.96 18.2827 96.1787 17.216 98.568C16.192 100.915 15.4027 103.325 14.848 105.8C14.2933 108.232 14.016 110.6 14.016 112.904C14.016 115.635 14.336 118.045 14.976 120.136C15.616 122.184 16.5333 123.869 17.728 125.192C18.9227 126.515 20.3733 127.517 22.08 128.2C23.7867 128.84 25.7067 129.16 27.84 129.16C28.48 129.16 28.928 129.416 29.184 129.928C29.44 130.397 29.5253 130.973 29.44 131.656C29.3547 132.296 29.12 132.851 28.736 133.32C28.352 133.832 27.84 134.088 27.2 134.088ZM27.158 134.088C26.5607 134.088 26.1553 133.832 25.942 133.32C25.686 132.851 25.6007 132.296 25.686 131.656C25.7287 130.973 25.942 130.397 26.326 129.928C26.6673 129.416 27.158 129.16 27.798 129.16C30.742 129.16 33.6433 128.755 36.502 127.944C39.3607 127.133 42.134 126.003 44.822 124.552C47.51 123.059 50.07 121.288 52.502 119.24C54.9767 117.192 57.2593 114.931 59.35 112.456C59.6487 112.157 60.0113 112.157 60.438 112.456C60.9073 112.755 61.2913 113.16 61.59 113.672C61.9313 114.184 61.974 114.589 61.718 114.888C59.542 117.789 57.1313 120.413 54.486 122.76C51.8407 125.107 49.046 127.133 46.102 128.84C43.1153 130.504 40.0433 131.805 36.886 132.744C33.7287 133.64 30.486 134.088 27.158 134.088ZM61.398 134.088C59.8193 134.088 58.4967 133.811 57.43 133.256C56.406 132.701 55.638 131.933 55.126 130.952C54.6567 129.928 54.422 128.776 54.422 127.496C54.422 126.216 54.678 124.808 55.19 123.272L62.102 102.088C62.4007 101.235 62.742 100.68 63.126 100.424C63.5527 100.168 64.1713 100.04 64.982 100.04C66.3047 100.04 67.1367 100.253 67.478 100.68C67.862 101.064 67.9047 101.683 67.606 102.536L60.694 123.848C59.9687 125.896 59.798 127.325 60.182 128.136C60.566 128.904 61.462 129.288 62.87 129.288C63.4673 129.288 63.894 129.544 64.15 130.056C64.406 130.525 64.47 131.08 64.342 131.72C64.2567 132.317 63.958 132.851 63.446 133.32C62.9767 133.832 62.294 134.088 61.398 134.088ZM68.95 90.184C68.0967 90.184 67.3713 89.9067 66.774 89.352C66.1767 88.7973 65.878 87.9867 65.878 86.92C65.878 85.768 66.2407 84.68 66.966 83.656C67.734 82.632 68.9073 82.12 70.486 82.12C71.382 82.12 72.1287 82.3973 72.726 82.952C73.3233 83.464 73.622 84.2747 73.622 85.384C73.622 86.536 73.238 87.624 72.47 88.648C71.7447 89.672 70.5713 90.184 68.95 90.184ZM61.3465 134.088C60.5358 134.088 60.0025 133.832 59.7465 133.32C59.4905 132.851 59.4692 132.317 59.6825 131.72C59.8532 131.08 60.2158 130.525 60.7705 130.056C61.3252 129.544 62.0078 129.288 62.8185 129.288C64.0558 129.288 65.3785 128.819 66.7865 127.88C68.1945 126.899 69.7945 125.341 71.5865 123.208C73.4212 121.032 75.5118 118.173 77.8585 114.632C80.2478 111.048 82.9998 106.632 86.1145 101.384C86.4558 100.829 86.9252 100.595 87.5225 100.68C88.1625 100.765 88.6745 101.043 89.0585 101.512C89.4852 101.939 89.5492 102.451 89.2505 103.048C86.0932 108.851 83.2345 113.736 80.6745 117.704C78.1145 121.672 75.7678 124.872 73.6345 127.304C71.5012 129.693 69.4532 131.421 67.4905 132.488C65.5278 133.555 63.4798 134.088 61.3465 134.088ZM96.6105 134.088C95.7998 134.088 94.9465 134.003 94.0505 133.832C93.1545 133.661 92.1518 133.555 91.0425 133.512C89.9332 133.469 88.6532 133.576 87.2025 133.832L89.2505 131.912C90.4878 131.4 91.6612 130.952 92.7705 130.568C93.8798 130.141 94.9038 129.821 95.8425 129.608C96.7812 129.395 97.5278 129.288 98.0825 129.288C98.4665 129.288 98.7012 129.544 98.7865 130.056C98.9145 130.525 98.8932 131.08 98.7225 131.72C98.5945 132.317 98.3385 132.851 97.9545 133.32C97.5705 133.832 97.1225 134.088 96.6105 134.088ZM85.7945 134.216C83.6612 134.216 81.7838 133.875 80.1625 133.192C78.5838 132.509 77.3892 131.763 76.5785 130.952C76.1518 130.525 75.9172 130.099 75.8745 129.672C75.8745 129.203 76.1732 128.648 76.7705 128.008C77.2398 127.496 77.6878 127.24 78.1145 127.24C78.5838 127.197 79.1172 127.368 79.7145 127.752C80.3118 128.179 81.1438 128.627 82.2105 129.096C83.2772 129.565 84.4505 129.8 85.7305 129.8C87.9492 129.8 89.5918 129.224 90.6585 128.072C91.7678 126.92 92.3225 125.32 92.3225 123.272C92.3225 122.205 92.1305 121.096 91.7465 119.944C91.3625 118.792 90.8505 117.64 90.2105 116.488C89.6132 115.293 88.9732 114.12 88.2905 112.968C87.6505 111.816 87.0105 110.664 86.3705 109.512C85.7732 108.317 85.2825 107.187 84.8985 106.12C84.5572 105.053 84.3865 104.029 84.3865 103.048C84.3865 100.531 84.7918 98.6533 85.6025 97.416C86.4132 96.136 87.6505 95.496 89.3145 95.496C90.2958 95.496 91.0212 95.7947 91.4905 96.392C91.9598 96.9467 92.1945 97.608 92.1945 98.376C92.1945 99.144 91.9598 99.9547 91.4905 100.808C91.0212 101.619 90.2958 102.664 89.3145 103.944C89.3145 104.84 89.5065 105.757 89.8905 106.696C90.3172 107.635 90.8505 108.616 91.4905 109.64C92.1305 110.621 92.8132 111.645 93.5385 112.712C94.3065 113.736 95.0105 114.824 95.6505 115.976C96.2905 117.085 96.8238 118.259 97.2505 119.496C97.6772 120.691 97.8905 121.949 97.8905 123.272C97.8905 126.771 96.7598 129.48 94.4985 131.4C92.2798 133.277 89.3785 134.216 85.7945 134.216ZM96.534 134.088C95.9367 134.088 95.51 133.832 95.254 133.32C94.9553 132.851 94.87 132.317 94.998 131.72C95.0833 131.08 95.382 130.525 95.894 130.056C96.406 129.544 97.11 129.288 98.006 129.288C99.3287 129.288 100.651 129.011 101.974 128.456C103.297 127.901 104.641 127.069 106.006 125.96C107.371 124.851 108.758 123.464 110.166 121.8C111.574 120.093 113.003 118.109 114.454 115.848C114.838 115.251 115.265 114.973 115.734 115.016C116.246 115.059 116.651 115.293 116.95 115.72C117.249 116.104 117.291 116.552 117.078 117.064C115.585 119.965 114.027 122.483 112.406 124.616C110.827 126.749 109.163 128.52 107.414 129.928C105.707 131.336 103.958 132.381 102.166 133.064C100.331 133.747 98.454 134.088 96.534 134.088ZM121.11 134.088C119.019 134.088 117.227 133.725 115.734 133C114.283 132.275 113.174 131.251 112.406 129.928C111.638 128.605 111.233 127.048 111.19 125.256C111.147 123.421 111.489 121.416 112.214 119.24L116.502 106.12H111.446C110.977 106.12 110.657 105.907 110.486 105.48C110.315 105.053 110.337 104.413 110.55 103.56C110.806 102.707 111.147 102.067 111.574 101.64C112.001 101.213 112.427 101 112.854 101H118.166L122.262 88.328C122.518 87.4747 122.838 86.92 123.222 86.664C123.649 86.408 124.289 86.28 125.142 86.28C126.465 86.28 127.297 86.4933 127.638 86.92C128.022 87.304 128.065 87.9227 127.766 88.776L123.798 101H131.862C132.331 101 132.651 101.213 132.822 101.64C133.035 102.024 133.014 102.664 132.758 103.56C132.545 104.371 132.225 105.011 131.798 105.48C131.371 105.907 130.923 106.12 130.454 106.12H122.198L117.718 119.88C117.206 121.416 116.95 122.781 116.95 123.976C116.95 125.171 117.163 126.173 117.59 126.984C118.059 127.752 118.721 128.328 119.574 128.712C120.427 129.096 121.451 129.288 122.646 129.288C123.243 129.288 123.649 129.544 123.862 130.056C124.118 130.525 124.203 131.08 124.118 131.72C124.033 132.317 123.734 132.851 123.222 133.32C122.71 133.832 122.006 134.088 121.11 134.088ZM121.284 134.088C120.687 134.088 120.26 133.832 120.004 133.32C119.705 132.851 119.62 132.317 119.748 131.72C119.833 131.08 120.132 130.525 120.644 130.056C121.156 129.544 121.86 129.288 122.756 129.288C123.609 129.288 124.697 129.053 126.02 128.584C127.3 128.115 128.793 127.432 130.5 126.536C132.249 125.64 134.169 124.509 136.26 123.144C136.815 122.803 137.305 122.739 137.732 122.952C138.159 123.165 138.5 123.528 138.756 124.04C139.012 124.552 139.076 125.107 138.948 125.704C138.863 126.301 138.564 126.771 138.052 127.112C135.492 128.776 133.209 130.12 131.204 131.144C129.199 132.168 127.385 132.915 125.764 133.384C124.143 133.853 122.649 134.088 121.284 134.088ZM138.562 122.312C140.952 120.989 143.107 119.667 145.027 118.344C146.989 117.021 148.675 115.72 150.083 114.44C151.491 113.16 152.579 111.944 153.347 110.792C154.115 109.597 154.499 108.488 154.499 107.464C154.499 106.568 154.264 105.928 153.795 105.544C153.325 105.117 152.685 104.904 151.875 104.904C149.997 104.904 148.333 105.437 146.883 106.504C145.475 107.528 144.259 108.851 143.235 110.472C142.253 112.051 141.507 113.693 140.995 115.4C140.525 117.064 140.291 118.515 140.291 119.752C140.291 121.501 140.525 122.995 140.995 124.232C141.464 125.427 142.104 126.387 142.915 127.112C143.768 127.837 144.707 128.371 145.731 128.712C146.797 129.053 147.885 129.224 148.995 129.224C149.592 129.224 149.997 129.48 150.211 129.992C150.467 130.461 150.552 131.037 150.467 131.72C150.424 132.36 150.211 132.915 149.827 133.384C149.443 133.896 148.931 134.152 148.291 134.152C145.347 134.152 142.851 133.619 140.803 132.552C138.755 131.485 137.197 129.885 136.131 127.752C135.064 125.619 134.531 123.016 134.531 119.944C134.531 117.939 134.915 115.784 135.683 113.48C136.493 111.176 137.667 108.979 139.203 106.888C140.739 104.797 142.637 103.091 144.899 101.768C147.203 100.445 149.827 99.784 152.771 99.784C154.136 99.784 155.373 100.04 156.483 100.552C157.635 101.064 158.531 101.811 159.171 102.792C159.853 103.773 160.195 104.989 160.195 106.44C160.195 108.275 159.704 110.045 158.723 111.752C157.784 113.459 156.419 115.144 154.627 116.808C152.877 118.429 150.787 120.051 148.355 121.672C145.923 123.293 143.235 124.936 140.291 126.6L138.562 122.312ZM148.31 134.152C147.499 134.152 146.945 133.896 146.646 133.384C146.305 132.915 146.177 132.36 146.262 131.72C146.347 131.037 146.625 130.461 147.094 129.992C147.563 129.48 148.203 129.224 149.014 129.224C151.403 129.224 153.494 128.797 155.286 127.944C157.035 127.091 158.614 125.917 160.022 124.424C161.387 122.931 162.625 121.224 163.734 119.304C164.843 117.384 165.931 115.357 166.998 113.224C167.809 111.517 168.662 109.875 169.558 108.296C170.454 106.717 171.435 105.309 172.502 104.072C173.569 102.792 174.742 101.789 176.022 101.064C177.345 100.339 178.838 99.976 180.502 99.976C180.971 99.976 181.27 100.232 181.398 100.744C181.526 101.213 181.547 101.768 181.462 102.408C181.377 103.005 181.185 103.56 180.886 104.072C180.63 104.541 180.289 104.776 179.862 104.776C179.137 104.776 178.411 104.989 177.686 105.416C176.961 105.843 176.257 106.504 175.574 107.4C174.891 108.253 174.166 109.299 173.398 110.536C172.673 111.773 171.905 113.224 171.094 114.888C170.113 116.893 169.089 118.835 168.022 120.712C166.955 122.589 165.803 124.36 164.566 126.024C163.329 127.645 161.921 129.075 160.342 130.312C158.763 131.507 156.993 132.445 155.03 133.128C153.067 133.811 150.827 134.152 148.31 134.152ZM169.429 133.96C168.746 133.96 168.106 133.811 167.509 133.512C166.954 133.213 166.805 132.659 167.061 131.848L174.869 107.528C175.167 106.632 175.21 105.949 174.997 105.48C174.783 105.011 174.314 104.776 173.589 104.776C172.949 104.776 172.501 104.541 172.245 104.072C171.989 103.56 171.882 103.005 171.925 102.408C172.01 101.768 172.245 101.213 172.629 100.744C173.013 100.232 173.546 99.976 174.229 99.976C175.423 99.976 176.426 100.168 177.237 100.552C178.047 100.893 178.687 101.384 179.157 102.024C179.626 102.664 179.946 103.389 180.117 104.2C180.287 105.011 180.33 105.843 180.245 106.696L179.925 107.784C180.821 106.461 181.738 105.309 182.677 104.328C183.658 103.347 184.618 102.515 185.557 101.832C186.538 101.149 187.498 100.637 188.437 100.296C189.418 99.9547 190.357 99.784 191.253 99.784C192.063 99.784 192.597 100.04 192.853 100.552C193.151 101.064 193.215 101.661 193.045 102.344C192.874 103.027 192.511 103.624 191.957 104.136C191.445 104.648 190.741 104.904 189.845 104.904C188.949 104.904 187.925 105.267 186.773 105.992C185.621 106.675 184.426 107.677 183.189 109C181.951 110.323 180.757 111.901 179.605 113.736C178.453 115.571 177.407 117.597 176.469 119.816L172.501 132.296C172.33 132.851 172.01 133.256 171.541 133.512C171.114 133.811 170.41 133.96 169.429 133.96ZM195.373 110.6C194.093 110.6 192.962 110.344 191.981 109.832C191 109.32 190.253 108.573 189.741 107.592C189.229 106.611 188.952 105.48 188.909 104.2L190.509 99.784C191.618 99.784 192.408 99.976 192.877 100.36C193.346 100.701 193.581 101.469 193.581 102.664C193.581 103.347 193.645 103.923 193.773 104.392C193.901 104.861 194.093 105.245 194.349 105.544C194.605 105.8 194.904 105.992 195.245 106.12C195.629 106.248 196.077 106.312 196.589 106.312C197.4 106.312 198.253 106.099 199.149 105.672C200.088 105.245 201.026 104.627 201.965 103.816C202.946 102.963 203.928 101.981 204.909 100.872C205.293 100.403 205.698 100.339 206.125 100.68C206.552 100.979 206.872 101.405 207.085 101.96C207.341 102.515 207.32 102.963 207.021 103.304C205.656 105.011 204.333 106.419 203.053 107.528C201.816 108.595 200.557 109.384 199.277 109.896C198.04 110.365 196.738 110.6 195.373 110.6ZM223.853 134.088C222.232 134.088 220.909 133.811 219.885 133.256C218.861 132.701 218.093 131.933 217.581 130.952C217.112 129.928 216.877 128.776 216.877 127.496C216.92 126.173 217.176 124.765 217.645 123.272L221.741 110.984C222.168 109.704 222.317 108.616 222.189 107.72C222.104 106.781 221.72 106.077 221.037 105.608C220.397 105.096 219.437 104.84 218.157 104.84C216.877 104.84 215.554 105.16 214.189 105.8C212.866 106.44 211.544 107.336 210.221 108.488C208.941 109.64 207.682 111.027 206.445 112.648C205.208 114.227 204.077 115.997 203.053 117.96L198.381 132.296C198.21 132.851 197.89 133.256 197.421 133.512C196.994 133.811 196.29 133.96 195.309 133.96C194.626 133.96 193.986 133.811 193.389 133.512C192.792 133.213 192.642 132.659 192.941 131.848L202.541 102.088C202.84 101.235 203.181 100.68 203.565 100.424C203.992 100.168 204.61 100.04 205.421 100.04C206.744 100.04 207.576 100.253 207.917 100.68C208.301 101.064 208.344 101.683 208.045 102.536L206.509 107.4C207.49 106.163 208.536 105.075 209.645 104.136C210.754 103.197 211.885 102.408 213.037 101.768C214.189 101.085 215.362 100.595 216.557 100.296C217.752 99.9547 218.946 99.784 220.141 99.784C222.573 99.784 224.408 100.339 225.645 101.448C226.882 102.557 227.565 104.115 227.693 106.12C227.864 108.125 227.522 110.451 226.669 113.096L223.149 123.848C222.466 125.896 222.296 127.325 222.637 128.136C223.021 128.904 223.917 129.288 225.325 129.288C225.922 129.288 226.349 129.544 226.605 130.056C226.861 130.525 226.925 131.08 226.797 131.72C226.712 132.317 226.413 132.851 225.901 133.32C225.432 133.832 224.749 134.088 223.853 134.088ZM223.846 134.088C223.249 134.088 222.822 133.832 222.566 133.32C222.268 132.851 222.182 132.317 222.31 131.72C222.396 131.08 222.694 130.525 223.206 130.056C223.718 129.544 224.422 129.288 225.318 129.288C226.428 129.288 227.558 129.053 228.71 128.584C229.82 128.115 230.929 127.432 232.038 126.536C233.148 125.597 234.172 124.488 235.111 123.208C236.049 121.928 236.881 120.499 237.607 118.92C237.82 118.28 238.183 117.981 238.695 118.024C239.249 118.024 239.719 118.237 240.103 118.664C240.529 119.048 240.657 119.539 240.487 120.136C239.719 122.312 238.737 124.275 237.543 126.024C236.348 127.731 235.025 129.181 233.575 130.376C232.124 131.571 230.566 132.488 228.902 133.128C227.238 133.768 225.553 134.088 223.846 134.088ZM245.351 134.088C243.516 134.088 241.937 133.683 240.615 132.872C239.292 132.019 238.268 130.803 237.543 129.224C236.86 127.645 236.519 125.789 236.519 123.656C236.519 121.779 236.775 119.752 237.286 117.576C237.841 115.4 238.652 113.267 239.719 111.176C240.828 109.085 242.193 107.187 243.815 105.48C245.479 103.731 247.42 102.344 249.639 101.32C251.857 100.296 254.375 99.784 257.191 99.784C259.025 99.784 260.817 100.147 262.567 100.872C264.316 101.555 265.895 102.429 267.303 103.496L266.471 107.912C264.636 106.717 262.993 105.907 261.543 105.48C260.135 105.053 258.727 104.84 257.319 104.84C255.143 104.84 253.223 105.245 251.559 106.056C249.937 106.867 248.529 107.955 247.335 109.32C246.183 110.685 245.223 112.179 244.455 113.8C243.729 115.421 243.175 117.043 242.791 118.664C242.449 120.243 242.279 121.672 242.279 122.952C242.279 124.275 242.471 125.384 242.855 126.28C243.239 127.133 243.793 127.795 244.519 128.264C245.244 128.733 246.14 128.968 247.207 128.968C248.7 128.968 250.236 128.435 251.815 127.368C253.393 126.301 254.972 124.765 256.551 122.76C258.172 120.712 259.708 118.301 261.159 115.528L262.567 118.344C260.689 122.397 258.705 125.576 256.615 127.88C254.524 130.184 252.497 131.805 250.535 132.744C248.615 133.64 246.887 134.088 245.351 134.088ZM264.487 134.088C262.865 134.088 261.543 133.811 260.519 133.256C259.495 132.701 258.727 131.933 258.215 130.952C257.745 129.928 257.511 128.776 257.511 127.496C257.553 126.173 257.809 124.765 258.279 123.272L265.255 102.088C265.553 101.235 265.895 100.68 266.279 100.424C266.705 100.168 267.324 100.04 268.135 100.04C269.457 100.04 270.289 100.253 270.631 100.68C271.015 101.064 271.057 101.683 270.759 102.536L263.783 123.848C263.1 125.896 262.951 127.325 263.335 128.136C263.719 128.904 264.593 129.288 265.958 129.288C266.556 129.288 266.961 129.544 267.175 130.056C267.431 130.525 267.516 131.08 267.431 131.72C267.345 132.317 267.047 132.851 266.535 133.32C266.065 133.832 265.383 134.088 264.487 134.088ZM264.471 134.088C263.661 134.088 263.127 133.832 262.871 133.32C262.615 132.851 262.594 132.317 262.807 131.72C262.978 131.08 263.341 130.525 263.895 130.056C264.45 129.544 265.133 129.288 265.943 129.288C267.181 129.288 268.503 128.819 269.911 127.88C271.319 126.899 272.919 125.341 274.712 123.208C276.546 121.032 278.637 118.173 280.984 114.632C283.373 111.048 286.125 106.632 289.24 101.384C289.581 100.829 290.05 100.595 290.648 100.68C291.288 100.765 291.8 101.043 292.184 101.512C292.61 101.939 292.674 102.451 292.376 103.048C289.218 108.851 286.36 113.736 283.8 117.704C281.24 121.672 278.893 124.872 276.76 127.304C274.626 129.693 272.578 131.421 270.615 132.488C268.653 133.555 266.605 134.088 264.471 134.088ZM288.92 134.216C286.786 134.216 284.909 133.875 283.288 133.192C281.709 132.509 280.514 131.763 279.704 130.952C279.277 130.525 279.042 130.099 279 129.672C279 129.203 279.298 128.648 279.896 128.008C280.365 127.496 280.813 127.24 281.24 127.24C281.709 127.197 282.242 127.368 282.84 127.752C283.437 128.179 284.269 128.627 285.336 129.096C286.402 129.565 287.576 129.8 288.856 129.8C291.074 129.8 292.717 129.224 293.784 128.072C294.893 126.92 295.448 125.32 295.448 123.272C295.448 122.205 295.256 121.096 294.872 119.944C294.488 118.792 293.976 117.64 293.336 116.488C292.738 115.293 292.098 114.12 291.416 112.968C290.776 111.816 290.136 110.664 289.496 109.512C288.898 108.317 288.408 107.187 288.024 106.12C287.682 105.053 287.512 104.029 287.512 103.048C287.512 100.531 287.917 98.6533 288.728 97.416C289.538 96.136 290.776 95.496 292.44 95.496C293.421 95.496 294.146 95.7947 294.616 96.392C295.085 96.9467 295.32 97.608 295.32 98.376C295.32 99.144 295.085 99.9547 294.616 100.808C294.146 101.619 293.421 102.664 292.44 103.944C292.44 104.84 292.632 105.757 293.016 106.696C293.442 107.635 293.976 108.616 294.616 109.64C295.256 110.621 295.938 111.645 296.664 112.712C297.432 113.736 298.136 114.824 298.776 115.976C299.416 117.085 299.949 118.259 300.376 119.496C300.802 120.691 301.016 121.949 301.016 123.272C301.016 126.771 299.885 129.48 297.624 131.4C295.405 133.277 292.504 134.216 288.92 134.216Z" fill="rgb(111, 54, 190)"/>
</svg>
